<svg width="58" height="58" viewBox="0 0 58 58" fill="none" xmlns="http://www.w3.org/2000/svg">
<rect width="58" height="58" rx="29" fill="rgba(92, 112, 199, 0.5)"/>
<path d="M12.3228 27C11.3228 27.5 12.736 31.6511 15.3228 35.5L19.8228 41.5C21.8228 44 22.5 44.5 24.3228 46.5L25 50V53L24.5 57L27.5 57.5H30.5L36.5 56.5C35.4932 53.4488 36.6507 46.2491 37.4228 43C37.4349 43.1981 39.1457 40.5 39.3228 38.5C39.5 36.5 39.6764 36.8371 39.3228 35.1822C38.1878 33.5594 38.3221 32.8129 36.6228 34.5C36.9253 33.0231 36.8228 32.5 35.8228 31C34.8228 29.5 34.3228 29.4941 33.3228 30C31.3771 30.9844 30.3228 33.5 30.3228 33.5C30.3228 33.5 31 28.5 29.5 27.5C28 26.5 28.4661 26.7043 27.0228 27.5C25.6247 29.0498 25.1638 30.2007 24.6228 32.5C22.5 23.5 24.5001 7.5 21.5 7.5C18.5 7.5 18.9772 25.6911 19.8228 36.1686L15.8228 31C15.8228 31 13.3229 26.5 12.3228 27Z" fill="url(#paint0_linear)"/>
<defs>
<linearGradient id="paint0_linear" x1="30.5" y1="55" x2="30.5" y2="56.5" gradientUnits="userSpaceOnUse">
<stop stop-color="white"/>
<stop offset="1" stop-opacity="0"/>
</linearGradient>
</defs>
</svg>
