<svg height="512" viewBox="0 0 64 64" width="512" xmlns="http://www.w3.org/2000/svg"><g id="man-cat-laptop-working"><path d="m24 26h21a2 2 0 0 1 2 2v21a0 0 0 0 1 0 0h-25a0 0 0 0 1 0 0v-21a2 2 0 0 1 2-2z" fill="#2488ff"/><path d="m38 17v9a3 3 0 0 1 -6 0v-9z" fill="#f0d0b4"/><path d="m33.5 22a5.33 5.33 0 0 1 -1.5-.21v2a5.33 5.33 0 0 0 1.5.21 5.472 5.472 0 0 0 4.5-2.34v-2a5.472 5.472 0 0 1 -4.5 2.34z" fill="#ecc19c"/><path d="m42 12v2a1 1 0 0 1 -1 1h-2v-4h2a1 1 0 0 1 1 1z" fill="#f0d0b4"/><path d="m39 9h-15a6 6 0 0 1 6-6 5.935 5.935 0 0 1 3.4 1.06c.2-.02.4-.06.6-.06a5 5 0 0 1 5 5z" fill="#6a563d"/><path d="m28 9h11a0 0 0 0 1 0 0v7.5a5.5 5.5 0 0 1 -5.5 5.5 5.5 5.5 0 0 1 -5.5-5.5v-7.5a0 0 0 0 1 0 0z" fill="#f5e0cd"/><path d="m5 54h54v7h-54z" fill="#957856"/><path d="m3 49h58v5h-58z" fill="#a78966"/><path d="m59.88 33.15-1.88 11.85v-2a6.954 6.954 0 0 0 -2.84-5.62l.77-4.86a2 2 0 0 1 3.97.32 1.615 1.615 0 0 1 -.02.31z" fill="#57565c"/><path d="m40 40v4h-7a2.006 2.006 0 0 1 -2-2 2.015 2.015 0 0 1 2-2z" fill="#57565c"/><path d="m55.16 37.38a6.9 6.9 0 0 0 -4.16-1.38v-4l1-5-4.12 2.06-3.33 1.67-4.55-2.73v17h-1a2.006 2.006 0 0 0 -2 2v2h21v-6a6.954 6.954 0 0 0 -2.84-5.62z" fill="#787680"/><path d="m58 44.53v4.47h-10a6 6 0 0 1 10-4.47z" fill="#898890"/><circle cx="47" cy="35" fill="#78b9eb" r="1"/><circle cx="43" cy="35" fill="#78b9eb" r="1"/><path d="m26 31v14h-21v-14a2.006 2.006 0 0 1 2-2h17a2.006 2.006 0 0 1 2 2z" fill="#9bfbff"/><circle cx="14" cy="37" fill="#ffda44" r="2"/><path d="m5 45h28v4h-28z" fill="#898890"/><g fill="#3e3d42"><circle cx="47" cy="35" r="1"/><circle cx="43" cy="35" r="1"/></g></g></svg>