<svg width="354" height="33" viewBox="0 0 354 33" fill="none" xmlns="http://www.w3.org/2000/svg">
<path d="M4.672 5.864C4.672 4.904 4.912 4.016 5.392 3.2C5.872 2.36 6.52 1.7 7.336 1.22C8.152 0.739998 9.052 0.499998 10.036 0.499998V1.796C8.932 1.796 7.972 2.192 7.156 2.984C6.364 3.776 5.968 4.736 5.968 5.864V11.624C5.968 12.608 5.716 13.52 5.212 14.36C4.708 15.2 4.036 15.848 3.196 16.304C4.036 16.76 4.708 17.408 5.212 18.248C5.716 19.088 5.968 20.012 5.968 21.02V26.78C5.968 27.884 6.364 28.832 7.156 29.624C7.972 30.416 8.932 30.812 10.036 30.812V32.144C9.052 32.144 8.152 31.904 7.336 31.424C6.52 30.944 5.872 30.296 5.392 29.48C4.912 28.64 4.672 27.74 4.672 26.78V21.02C4.672 19.916 4.276 18.968 3.484 18.176C2.692 17.384 1.732 16.988 0.604 16.988V15.656C1.708 15.656 2.656 15.26 3.448 14.468C4.264 13.676 4.672 12.728 4.672 11.624V5.864Z" fill="#DDEE1E"/>
<path d="M24.3004 32V6.944H25.6324V18.788H42.2644V6.944H43.5964V32H42.2644V20.12H25.6324V32H24.3004ZM61.8929 6.944H63.2969L73.5929 32H72.1529L68.7689 23.72H56.4209L53.0009 32H51.5969L61.8929 6.944ZM56.9609 22.424H68.2289L62.5769 8.672L56.9609 22.424ZM96.2453 7.664C97.3733 8.24 98.2373 9.032 98.8373 10.04C99.4613 11.048 99.7733 12.176 99.7733 13.424C99.7733 14.6 99.4613 15.692 98.8373 16.7C98.2373 17.684 97.3973 18.464 96.3173 19.04C97.5893 19.472 98.6453 20.264 99.4853 21.416C100.325 22.568 100.745 23.84 100.745 25.232C100.745 26.48 100.433 27.632 99.8093 28.688C99.1853 29.744 98.3573 30.56 97.3253 31.136C96.7973 31.424 96.2093 31.64 95.5613 31.784C94.9133 31.928 94.0493 32 92.9693 32H82.4573V6.944H92.4653C94.0493 6.944 95.3093 7.184 96.2453 7.664ZM95.6693 17.996C96.5333 17.564 97.2173 16.94 97.7213 16.124C98.2253 15.308 98.4773 14.408 98.4773 13.424C98.4773 12.32 98.1893 11.36 97.6133 10.544C97.0373 9.704 96.3053 9.092 95.4173 8.708C94.7453 8.42 93.6173 8.276 92.0333 8.276H83.7533V18.572H92.6813C93.9293 18.572 94.9253 18.38 95.6693 17.996ZM96.5333 30.128C97.4213 29.672 98.1293 29.012 98.6573 28.148C99.1853 27.26 99.4493 26.3 99.4493 25.268C99.4493 24.188 99.1733 23.216 98.6213 22.352C98.0693 21.464 97.3253 20.804 96.3893 20.372C95.6693 20.036 94.6973 19.868 93.4733 19.868H83.7533V30.704H93.0053C93.9173 30.704 94.6373 30.656 95.1653 30.56C95.6933 30.464 96.1493 30.32 96.5333 30.128ZM127.97 6.944V8.276H120.482V30.668H127.97V32H111.734V30.668H119.186V8.276H111.734V6.944H127.97ZM140.722 32V6.944H142.054V30.668H159.514V32H140.722ZM185.227 6.944V8.276H177.739V30.668H185.227V32H168.991V30.668H176.443V8.276H168.991V6.944H185.227ZM205.467 6.944C207.291 6.944 208.971 7.4 210.507 8.312C212.067 9.224 213.303 10.46 214.215 12.02C215.127 13.556 215.583 15.236 215.583 17.06V21.884C215.583 23.708 215.127 25.4 214.215 26.96C213.303 28.496 212.067 29.72 210.507 30.632C208.971 31.544 207.291 32 205.467 32H196.215V6.944H205.467ZM214.251 17.06C214.251 15.476 213.855 14.012 213.063 12.668C212.271 11.324 211.191 10.256 209.823 9.464C208.479 8.672 207.015 8.276 205.431 8.276H197.547V30.668H205.431C207.015 30.668 208.479 30.272 209.823 29.48C211.191 28.688 212.271 27.62 213.063 26.276C213.855 24.932 214.251 23.468 214.251 21.884V17.06ZM233.663 6.944H235.067L245.363 32H243.923L240.539 23.72H228.191L224.771 32H223.367L233.663 6.944ZM228.731 22.424H239.999L234.347 8.672L228.731 22.424ZM262.724 6.944C264.548 6.944 266.228 7.4 267.764 8.312C269.324 9.224 270.56 10.46 271.472 12.02C272.384 13.556 272.84 15.236 272.84 17.06V21.884C272.84 23.708 272.384 25.4 271.472 26.96C270.56 28.496 269.324 29.72 267.764 30.632C266.228 31.544 264.548 32 262.724 32H253.472V6.944H262.724ZM271.508 17.06C271.508 15.476 271.112 14.012 270.32 12.668C269.528 11.324 268.448 10.256 267.08 9.464C265.736 8.672 264.272 8.276 262.688 8.276H254.804V30.668H262.688C264.272 30.668 265.736 30.272 267.08 29.48C268.448 28.688 269.528 27.62 270.32 26.276C271.112 24.932 271.508 23.468 271.508 21.884V17.06ZM282.964 6.944H300.604V8.276H284.296V18.428H298.48V19.76H284.296V30.668H300.604V32H282.964V6.944ZM320.773 20.012C318.733 19.604 317.065 19.16 315.769 18.68C314.497 18.176 313.489 17.504 312.745 16.664C312.025 15.8 311.665 14.696 311.665 13.352C311.665 11.96 312.025 10.736 312.745 9.68C313.489 8.624 314.521 7.808 315.841 7.232C317.185 6.656 318.733 6.368 320.485 6.368C322.165 6.368 323.701 6.728 325.093 7.448C326.509 8.144 327.625 9.128 328.441 10.4C329.257 11.672 329.665 13.124 329.665 14.756H328.333C328.333 13.34 327.985 12.092 327.289 11.012C326.593 9.932 325.645 9.104 324.445 8.528C323.245 7.928 321.913 7.628 320.449 7.628C319.153 7.628 317.941 7.832 316.813 8.24C315.685 8.648 314.761 9.272 314.041 10.112C313.345 10.952 312.997 12.008 312.997 13.28C312.997 14.432 313.333 15.356 314.005 16.052C314.677 16.724 315.553 17.24 316.633 17.6C317.713 17.96 319.225 18.344 321.169 18.752C323.137 19.16 324.661 19.556 325.741 19.94C326.845 20.3 327.769 20.912 328.513 21.776C329.281 22.64 329.665 23.852 329.665 25.412C329.665 26.972 329.245 28.292 328.405 29.372C327.589 30.428 326.497 31.22 325.129 31.748C323.761 32.276 322.273 32.54 320.665 32.54C318.673 32.54 316.921 32.168 315.409 31.424C313.897 30.68 312.733 29.636 311.917 28.292C311.125 26.924 310.729 25.364 310.729 23.612H312.061C312.061 25.148 312.397 26.492 313.069 27.644C313.765 28.796 314.761 29.696 316.057 30.344C317.353 30.968 318.889 31.28 320.665 31.28C322.873 31.28 324.697 30.752 326.137 29.696C327.601 28.64 328.333 27.2 328.333 25.376C328.333 24.128 328.021 23.168 327.397 22.496C326.773 21.824 325.981 21.344 325.021 21.056C324.085 20.744 322.669 20.396 320.773 20.012Z" fill="#37C26F"/>
<path d="M344.145 30.812C345.273 30.812 346.233 30.416 347.025 29.624C347.817 28.832 348.213 27.884 348.213 26.78V21.02C348.213 20.012 348.465 19.088 348.969 18.248C349.473 17.408 350.145 16.76 350.985 16.304C350.145 15.848 349.473 15.2 348.969 14.36C348.465 13.52 348.213 12.608 348.213 11.624V5.864C348.213 4.736 347.817 3.776 347.025 2.984C346.233 2.192 345.273 1.796 344.145 1.796V0.499998C345.129 0.499998 346.029 0.739998 346.845 1.22C347.661 1.7 348.309 2.348 348.789 3.164C349.269 3.98 349.509 4.88 349.509 5.864V11.624C349.509 12.728 349.905 13.676 350.697 14.468C351.513 15.26 352.473 15.656 353.577 15.656V16.988C352.449 16.988 351.489 17.384 350.697 18.176C349.905 18.968 349.509 19.916 349.509 21.02V26.78C349.509 27.74 349.269 28.64 348.789 29.48C348.309 30.296 347.661 30.944 346.845 31.424C346.029 31.904 345.129 32.144 344.145 32.144V30.812Z" fill="#DDEE1E"/>
</svg>
