<svg width="295" height="37" viewBox="0 0 295 37" fill="none" xmlns="http://www.w3.org/2000/svg">
<path d="M0.756001 20.94C0.756001 18.06 1.284 15.288 2.34 12.624C3.396 9.96 4.92 7.572 6.912 5.46L7.884 6.36C6.012 8.328 4.572 10.572 3.564 13.092C2.58 15.612 2.088 18.228 2.088 20.94C2.088 23.652 2.58 26.268 3.564 28.788C4.572 31.308 6.012 33.552 7.884 35.52L6.912 36.42C4.92 34.332 3.396 31.956 2.34 29.292C1.284 26.628 0.756001 23.844 0.756001 20.94Z" fill="#4B37C2"/>
<path d="M25.9644 33H24.6324V7.944H34.7124C36.3924 7.944 37.9404 8.304 39.3564 9.024C40.7964 9.744 41.9364 10.764 42.7764 12.084C43.6164 13.404 44.0364 14.928 44.0364 16.656C44.0364 18.312 43.6044 19.836 42.7404 21.228C41.9004 22.62 40.7484 23.688 39.2844 24.432C38.0124 25.08 36.4884 25.404 34.7124 25.404H25.9644V33ZM25.9644 24.072H34.7124C36.2484 24.072 37.5084 23.832 38.4924 23.352C39.7644 22.752 40.7844 21.852 41.5524 20.652C42.3204 19.452 42.7044 18.12 42.7044 16.656C42.7044 15.216 42.3204 13.896 41.5524 12.696C40.7844 11.496 39.7524 10.596 38.4564 9.996C37.4724 9.516 36.2244 9.276 34.7124 9.276H25.9644V24.072ZM61.5769 7.404C63.4489 7.404 65.1769 7.872 66.7609 8.808C68.3449 9.72 69.5929 10.968 70.5049 12.552C71.4409 14.136 71.9089 15.864 71.9089 17.736V23.208C71.9089 25.08 71.4409 26.808 70.5049 28.392C69.5929 29.976 68.3449 31.236 66.7609 32.172C65.1769 33.084 63.4489 33.54 61.5769 33.54C59.7049 33.54 57.9769 33.084 56.3929 32.172C54.8089 31.236 53.5489 29.976 52.6129 28.392C51.7009 26.808 51.2449 25.08 51.2449 23.208V17.736C51.2449 15.864 51.7009 14.136 52.6129 12.552C53.5489 10.968 54.8089 9.72 56.3929 8.808C57.9769 7.872 59.7049 7.404 61.5769 7.404ZM52.5769 23.208C52.5769 24.84 52.9729 26.352 53.7649 27.744C54.5809 29.112 55.6729 30.204 57.0409 31.02C58.4329 31.812 59.9449 32.208 61.5769 32.208C63.2089 32.208 64.7089 31.812 66.0769 31.02C67.4689 30.204 68.5609 29.112 69.3529 27.744C70.1689 26.352 70.5769 24.84 70.5769 23.208V17.736C70.5769 16.104 70.1689 14.604 69.3529 13.236C68.5609 11.844 67.4689 10.752 66.0769 9.96C64.7089 9.144 63.2089 8.736 61.5769 8.736C59.9449 8.736 58.4329 9.144 57.0409 9.96C55.6729 10.752 54.5809 11.844 53.7649 13.236C52.9729 14.604 52.5769 16.104 52.5769 17.736V23.208ZM95.6413 8.772C97.0813 9.444 98.2093 10.44 99.0253 11.76C99.8653 13.08 100.285 14.544 100.285 16.152C100.285 18.024 99.7093 19.704 98.5573 21.192C97.4293 22.656 95.9773 23.628 94.2013 24.108L100.573 33H98.9893L92.8333 24.36L91.6813 24.396H82.6453V33H81.3133V7.944H90.8533C91.9093 7.944 92.8093 8.016 93.5533 8.16C94.3213 8.28 95.0173 8.484 95.6413 8.772ZM92.0413 23.064C93.2893 23.064 94.4413 22.752 95.4973 22.128C96.5533 21.504 97.3933 20.664 98.0173 19.608C98.6413 18.552 98.9533 17.4 98.9533 16.152C98.9533 14.76 98.5813 13.5 97.8373 12.372C97.1173 11.244 96.1093 10.404 94.8133 9.852C93.8773 9.468 92.5573 9.276 90.8533 9.276H82.6453V23.064H92.0413ZM128.95 7.944V9.276H119.482V33H118.186V9.276H108.718V7.944H128.95ZM139.146 7.944H157.83V9.276H140.478V19.788H154.518V21.12H140.478V33H139.146V7.944ZM176.091 7.404C177.963 7.404 179.691 7.872 181.275 8.808C182.859 9.72 184.107 10.968 185.019 12.552C185.955 14.136 186.423 15.864 186.423 17.736V23.208C186.423 25.08 185.955 26.808 185.019 28.392C184.107 29.976 182.859 31.236 181.275 32.172C179.691 33.084 177.963 33.54 176.091 33.54C174.219 33.54 172.491 33.084 170.907 32.172C169.323 31.236 168.063 29.976 167.127 28.392C166.215 26.808 165.759 25.08 165.759 23.208V17.736C165.759 15.864 166.215 14.136 167.127 12.552C168.063 10.968 169.323 9.72 170.907 8.808C172.491 7.872 174.219 7.404 176.091 7.404ZM167.091 23.208C167.091 24.84 167.487 26.352 168.279 27.744C169.095 29.112 170.187 30.204 171.555 31.02C172.947 31.812 174.459 32.208 176.091 32.208C177.723 32.208 179.223 31.812 180.591 31.02C181.983 30.204 183.075 29.112 183.867 27.744C184.683 26.352 185.091 24.84 185.091 23.208V17.736C185.091 16.104 184.683 14.604 183.867 13.236C183.075 11.844 181.983 10.752 180.591 9.96C179.223 9.144 177.723 8.736 176.091 8.736C174.459 8.736 172.947 9.144 171.555 9.96C170.187 10.752 169.095 11.844 168.279 13.236C167.487 14.604 167.091 16.104 167.091 17.736V23.208ZM178.503 0.167998L179.763 1.788L173.535 6.324L172.851 5.424L178.503 0.167998ZM196.979 33V7.944H198.311V31.668H215.771V33H196.979ZM241.483 7.944V9.276H233.995V31.668H241.483V33H225.247V31.668H232.699V9.276H225.247V7.944H241.483ZM261.976 7.404C263.848 7.404 265.576 7.872 267.16 8.808C268.744 9.72 269.992 10.968 270.904 12.552C271.84 14.136 272.308 15.864 272.308 17.736V23.208C272.308 25.08 271.84 26.808 270.904 28.392C269.992 29.976 268.744 31.236 267.16 32.172C265.576 33.084 263.848 33.54 261.976 33.54C260.104 33.54 258.376 33.084 256.792 32.172C255.208 31.236 253.948 29.976 253.012 28.392C252.1 26.808 251.644 25.08 251.644 23.208V17.736C251.644 15.864 252.1 14.136 253.012 12.552C253.948 10.968 255.208 9.72 256.792 8.808C258.376 7.872 260.104 7.404 261.976 7.404ZM252.976 23.208C252.976 24.84 253.372 26.352 254.164 27.744C254.98 29.112 256.072 30.204 257.44 31.02C258.832 31.812 260.344 32.208 261.976 32.208C263.608 32.208 265.108 31.812 266.476 31.02C267.868 30.204 268.96 29.112 269.752 27.744C270.568 26.352 270.976 24.84 270.976 23.208V17.736C270.976 16.104 270.568 14.604 269.752 13.236C268.96 11.844 267.868 10.752 266.476 9.96C265.108 9.144 263.608 8.736 261.976 8.736C260.344 8.736 258.832 9.144 257.44 9.96C256.072 10.752 254.98 11.844 254.164 13.236C253.372 14.604 252.976 16.104 252.976 17.736V23.208Z" fill="#F2FCF6"/>
<path d="M287.04 35.772C288.912 33.804 290.34 31.56 291.324 29.04C292.332 26.52 292.836 23.904 292.836 21.192C292.836 18.48 292.332 15.864 291.324 13.344C290.34 10.824 288.912 8.58 287.04 6.612L288.012 5.712C290.004 7.824 291.528 10.212 292.584 12.876C293.64 15.54 294.168 18.312 294.168 21.192C294.168 24.096 293.64 26.88 292.584 29.544C291.528 32.208 290.004 34.584 288.012 36.672L287.04 35.772Z" fill="#4B37C2"/>
</svg>
