<svg width="300" height="28" viewBox="0 0 300 28" fill="none" xmlns="http://www.w3.org/2000/svg">
<path d="M10.2 5.004L11.136 5.94L2.532 14.58L11.136 23.184L10.2 24.12L0.66 14.58L10.2 5.004ZM28.9644 27H27.6324V1.944H37.7124C39.3924 1.944 40.9404 2.304 42.3564 3.024C43.7964 3.744 44.9364 4.764 45.7764 6.084C46.6164 7.404 47.0364 8.928 47.0364 10.656C47.0364 12.312 46.6044 13.836 45.7404 15.228C44.9004 16.62 43.7484 17.688 42.2844 18.432C41.0124 19.08 39.4884 19.404 37.7124 19.404H28.9644V27ZM28.9644 18.072H37.7124C39.2484 18.072 40.5084 17.832 41.4924 17.352C42.7644 16.752 43.7844 15.852 44.5524 14.652C45.3204 13.452 45.7044 12.12 45.7044 10.656C45.7044 9.216 45.3204 7.896 44.5524 6.696C43.7844 5.496 42.7524 4.596 41.4564 3.996C40.4724 3.516 39.2244 3.276 37.7124 3.276H28.9644V18.072ZM70.0129 2.772C71.4529 3.444 72.5809 4.44 73.3969 5.76C74.2369 7.08 74.6569 8.544 74.6569 10.152C74.6569 12.024 74.0809 13.704 72.9289 15.192C71.8009 16.656 70.3489 17.628 68.5729 18.108L74.9449 27H73.3609L67.2049 18.36L66.0529 18.396H57.0169V27H55.6849V1.944H65.2249C66.2809 1.944 67.1809 2.016 67.9249 2.16C68.6929 2.28 69.3889 2.484 70.0129 2.772ZM66.4129 17.064C67.6609 17.064 68.8129 16.752 69.8689 16.128C70.9249 15.504 71.7649 14.664 72.3889 13.608C73.0129 12.552 73.3249 11.4 73.3249 10.152C73.3249 8.76 72.9529 7.5 72.2089 6.372C71.4889 5.244 70.4809 4.404 69.1849 3.852C68.2489 3.468 66.9289 3.276 65.2249 3.276H57.0169V17.064H66.4129ZM93.2053 1.404C95.0773 1.404 96.8053 1.872 98.3893 2.808C99.9733 3.72 101.221 4.968 102.133 6.552C103.069 8.136 103.537 9.864 103.537 11.736V17.208C103.537 19.08 103.069 20.808 102.133 22.392C101.221 23.976 99.9733 25.236 98.3893 26.172C96.8053 27.084 95.0773 27.54 93.2053 27.54C91.3333 27.54 89.6053 27.084 88.0213 26.172C86.4373 25.236 85.1773 23.976 84.2413 22.392C83.3293 20.808 82.8733 19.08 82.8733 17.208V11.736C82.8733 9.864 83.3293 8.136 84.2413 6.552C85.1773 4.968 86.4373 3.72 88.0213 2.808C89.6053 1.872 91.3333 1.404 93.2053 1.404ZM84.2053 17.208C84.2053 18.84 84.6013 20.352 85.3933 21.744C86.2093 23.112 87.3013 24.204 88.6693 25.02C90.0613 25.812 91.5733 26.208 93.2053 26.208C94.8373 26.208 96.3373 25.812 97.7053 25.02C99.0973 24.204 100.189 23.112 100.981 21.744C101.797 20.352 102.205 18.84 102.205 17.208V11.736C102.205 10.104 101.797 8.604 100.981 7.236C100.189 5.844 99.0973 4.752 97.7053 3.96C96.3373 3.144 94.8373 2.736 93.2053 2.736C91.5733 2.736 90.0613 3.144 88.6693 3.96C87.3013 4.752 86.2093 5.844 85.3933 7.236C84.6013 8.604 84.2053 10.104 84.2053 11.736V17.208ZM121.402 27.54C119.698 27.54 118.114 27.156 116.65 26.388C115.186 25.596 113.986 24.516 113.05 23.148C112.114 21.78 111.562 20.268 111.394 18.612H112.726C112.894 20.028 113.386 21.324 114.202 22.5C115.018 23.652 116.05 24.564 117.298 25.236C118.57 25.884 119.938 26.208 121.402 26.208C123.01 26.208 124.486 25.812 125.83 25.02C127.174 24.228 128.242 23.136 129.034 21.744C129.826 20.352 130.222 18.792 130.222 17.064V3.276H118.99V1.944H131.518V17.064C131.518 19.032 131.062 20.82 130.15 22.428C129.262 24.012 128.038 25.26 126.478 26.172C124.942 27.084 123.25 27.54 121.402 27.54ZM141.822 1.944H159.462V3.276H143.154V13.428H157.338V14.76H143.154V25.668H159.462V27H141.822V1.944ZM189.207 1.944V3.276H179.739V27H178.443V3.276H168.975V1.944H189.207ZM207.719 1.404C209.591 1.404 211.319 1.872 212.903 2.808C214.487 3.72 215.735 4.968 216.647 6.552C217.583 8.136 218.051 9.864 218.051 11.736V17.208C218.051 19.08 217.583 20.808 216.647 22.392C215.735 23.976 214.487 25.236 212.903 26.172C211.319 27.084 209.591 27.54 207.719 27.54C205.847 27.54 204.119 27.084 202.535 26.172C200.951 25.236 199.691 23.976 198.755 22.392C197.843 20.808 197.387 19.08 197.387 17.208V11.736C197.387 9.864 197.843 8.136 198.755 6.552C199.691 4.968 200.951 3.72 202.535 2.808C204.119 1.872 205.847 1.404 207.719 1.404ZM198.719 17.208C198.719 18.84 199.115 20.352 199.907 21.744C200.723 23.112 201.815 24.204 203.183 25.02C204.575 25.812 206.087 26.208 207.719 26.208C209.351 26.208 210.851 25.812 212.219 25.02C213.611 24.204 214.703 23.112 215.495 21.744C216.311 20.352 216.719 18.84 216.719 17.208V11.736C216.719 10.104 216.311 8.604 215.495 7.236C214.703 5.844 213.611 4.752 212.219 3.96C210.851 3.144 209.351 2.736 207.719 2.736C206.087 2.736 204.575 3.144 203.183 3.96C201.815 4.752 200.723 5.844 199.907 7.236C199.115 8.604 198.719 10.104 198.719 11.736V17.208ZM236.887 15.012C234.847 14.604 233.179 14.16 231.883 13.68C230.611 13.176 229.603 12.504 228.859 11.664C228.139 10.8 227.779 9.696 227.779 8.352C227.779 6.96 228.139 5.736 228.859 4.68C229.603 3.624 230.635 2.808 231.955 2.232C233.299 1.656 234.847 1.368 236.599 1.368C238.279 1.368 239.815 1.728 241.207 2.448C242.623 3.144 243.739 4.128 244.555 5.4C245.371 6.672 245.779 8.124 245.779 9.756H244.447C244.447 8.34 244.099 7.092 243.403 6.012C242.707 4.932 241.759 4.104 240.559 3.528C239.359 2.928 238.027 2.628 236.563 2.628C235.267 2.628 234.055 2.832 232.927 3.24C231.799 3.648 230.875 4.272 230.155 5.112C229.459 5.952 229.111 7.008 229.111 8.28C229.111 9.432 229.447 10.356 230.119 11.052C230.791 11.724 231.667 12.24 232.747 12.6C233.827 12.96 235.339 13.344 237.283 13.752C239.251 14.16 240.775 14.556 241.855 14.94C242.959 15.3 243.883 15.912 244.627 16.776C245.395 17.64 245.779 18.852 245.779 20.412C245.779 21.972 245.359 23.292 244.519 24.372C243.703 25.428 242.611 26.22 241.243 26.748C239.875 27.276 238.387 27.54 236.779 27.54C234.787 27.54 233.035 27.168 231.523 26.424C230.011 25.68 228.847 24.636 228.031 23.292C227.239 21.924 226.843 20.364 226.843 18.612H228.175C228.175 20.148 228.511 21.492 229.183 22.644C229.879 23.796 230.875 24.696 232.171 25.344C233.467 25.968 235.003 26.28 236.779 26.28C238.987 26.28 240.811 25.752 242.251 24.696C243.715 23.64 244.447 22.2 244.447 20.376C244.447 19.128 244.135 18.168 243.511 17.496C242.887 16.824 242.095 16.344 241.135 16.056C240.199 15.744 238.783 15.396 236.887 15.012ZM255.508 27L272.824 0.36H274.444L257.128 27H255.508ZM297.348 14.58L288.744 5.94L289.68 5.004L299.22 14.58L289.68 24.12L288.744 23.184L297.348 14.58Z" fill="#37C26F"/>
</svg>
