<svg width="180" height="32" viewBox="0 0 180 32" fill="none" xmlns="http://www.w3.org/2000/svg">
<path d="M0.72 0.171998H7.956V1.468H2.016V30.016H7.956V31.348H0.72V0.171998ZM172.491 1.468V0.171998H179.727V31.348H172.491V30.016H178.431V1.468H172.491Z" fill="#FF326F"/>
<path d="M33.4884 16.012C31.4484 15.604 29.7804 15.16 28.4844 14.68C27.2124 14.176 26.2044 13.504 25.4604 12.664C24.7404 11.8 24.3804 10.696 24.3804 9.352C24.3804 7.96 24.7404 6.736 25.4604 5.68C26.2044 4.624 27.2364 3.808 28.5564 3.232C29.9004 2.656 31.4484 2.368 33.2004 2.368C34.8804 2.368 36.4164 2.728 37.8084 3.448C39.2244 4.144 40.3404 5.128 41.1564 6.4C41.9724 7.672 42.3804 9.124 42.3804 10.756H41.0484C41.0484 9.34 40.7004 8.092 40.0044 7.012C39.3084 5.932 38.3604 5.104 37.1604 4.528C35.9604 3.928 34.6284 3.628 33.1644 3.628C31.8684 3.628 30.6564 3.832 29.5284 4.24C28.4004 4.648 27.4764 5.272 26.7564 6.112C26.0604 6.952 25.7124 8.008 25.7124 9.28C25.7124 10.432 26.0484 11.356 26.7204 12.052C27.3924 12.724 28.2684 13.24 29.3484 13.6C30.4284 13.96 31.9404 14.344 33.8844 14.752C35.8524 15.16 37.3764 15.556 38.4564 15.94C39.5604 16.3 40.4844 16.912 41.2284 17.776C41.9964 18.64 42.3804 19.852 42.3804 21.412C42.3804 22.972 41.9604 24.292 41.1204 25.372C40.3044 26.428 39.2124 27.22 37.8444 27.748C36.4764 28.276 34.9884 28.54 33.3804 28.54C31.3884 28.54 29.6364 28.168 28.1244 27.424C26.6124 26.68 25.4484 25.636 24.6324 24.292C23.8404 22.924 23.4444 21.364 23.4444 19.612H24.7764C24.7764 21.148 25.1124 22.492 25.7844 23.644C26.4804 24.796 27.4764 25.696 28.7724 26.344C30.0684 26.968 31.6044 27.28 33.3804 27.28C35.5884 27.28 37.4124 26.752 38.8524 25.696C40.3164 24.64 41.0484 23.2 41.0484 21.376C41.0484 20.128 40.7364 19.168 40.1124 18.496C39.4884 17.824 38.6964 17.344 37.7364 17.056C36.8004 16.744 35.3844 16.396 33.4884 16.012ZM61.5769 2.404C63.4489 2.404 65.1769 2.872 66.7609 3.808C68.3449 4.72 69.5929 5.968 70.5049 7.552C71.4409 9.136 71.9089 10.864 71.9089 12.736V18.208C71.9089 20.08 71.4409 21.808 70.5049 23.392C69.5929 24.976 68.3449 26.236 66.7609 27.172C65.1769 28.084 63.4489 28.54 61.5769 28.54C59.7049 28.54 57.9769 28.084 56.3929 27.172C54.8089 26.236 53.5489 24.976 52.6129 23.392C51.7009 21.808 51.2449 20.08 51.2449 18.208V12.736C51.2449 10.864 51.7009 9.136 52.6129 7.552C53.5489 5.968 54.8089 4.72 56.3929 3.808C57.9769 2.872 59.7049 2.404 61.5769 2.404ZM52.5769 18.208C52.5769 19.84 52.9729 21.352 53.7649 22.744C54.5809 24.112 55.6729 25.204 57.0409 26.02C58.4329 26.812 59.9449 27.208 61.5769 27.208C63.2089 27.208 64.7089 26.812 66.0769 26.02C67.4689 25.204 68.5609 24.112 69.3529 22.744C70.1689 21.352 70.5769 19.84 70.5769 18.208V12.736C70.5769 11.104 70.1689 9.604 69.3529 8.236C68.5609 6.844 67.4689 5.752 66.0769 4.96C64.7089 4.144 63.2089 3.736 61.5769 3.736C59.9449 3.736 58.4329 4.144 57.0409 4.96C55.6729 5.752 54.5809 6.844 53.7649 8.236C52.9729 9.604 52.5769 11.104 52.5769 12.736V18.208ZM95.2453 3.664C96.3733 4.24 97.2373 5.032 97.8373 6.04C98.4613 7.048 98.7733 8.176 98.7733 9.424C98.7733 10.6 98.4613 11.692 97.8373 12.7C97.2373 13.684 96.3973 14.464 95.3173 15.04C96.5893 15.472 97.6453 16.264 98.4853 17.416C99.3253 18.568 99.7453 19.84 99.7453 21.232C99.7453 22.48 99.4333 23.632 98.8093 24.688C98.1853 25.744 97.3573 26.56 96.3253 27.136C95.7973 27.424 95.2093 27.64 94.5613 27.784C93.9133 27.928 93.0493 28 91.9693 28H81.4573V2.944H91.4653C93.0493 2.944 94.3093 3.184 95.2453 3.664ZM94.6693 13.996C95.5333 13.564 96.2173 12.94 96.7213 12.124C97.2253 11.308 97.4773 10.408 97.4773 9.424C97.4773 8.32 97.1893 7.36 96.6133 6.544C96.0373 5.704 95.3053 5.092 94.4173 4.708C93.7453 4.42 92.6173 4.276 91.0333 4.276H82.7533V14.572H91.6813C92.9293 14.572 93.9253 14.38 94.6693 13.996ZM95.5333 26.128C96.4213 25.672 97.1293 25.012 97.6573 24.148C98.1853 23.26 98.4493 22.3 98.4493 21.268C98.4493 20.188 98.1733 19.216 97.6213 18.352C97.0693 17.464 96.3253 16.804 95.3893 16.372C94.6693 16.036 93.6973 15.868 92.4733 15.868H82.7533V26.704H92.0053C92.9173 26.704 93.6373 26.656 94.1653 26.56C94.6933 26.464 95.1493 26.32 95.5333 26.128ZM124.27 3.772C125.71 4.444 126.838 5.44 127.654 6.76C128.494 8.08 128.914 9.544 128.914 11.152C128.914 13.024 128.338 14.704 127.186 16.192C126.058 17.656 124.606 18.628 122.83 19.108L129.202 28H127.618L121.462 19.36L120.31 19.396H111.274V28H109.942V2.944H119.482C120.538 2.944 121.438 3.016 122.182 3.16C122.95 3.28 123.646 3.484 124.27 3.772ZM120.67 18.064C121.918 18.064 123.07 17.752 124.126 17.128C125.182 16.504 126.022 15.664 126.646 14.608C127.27 13.552 127.582 12.4 127.582 11.152C127.582 9.76 127.21 8.5 126.466 7.372C125.746 6.244 124.738 5.404 123.442 4.852C122.506 4.468 121.186 4.276 119.482 4.276H111.274V18.064H120.67ZM138.822 2.944H156.462V4.276H140.154V14.428H154.338V15.76H140.154V26.668H156.462V28H138.822V2.944Z" fill="#37C26F"/>
</svg>
